<svg width="231" height="66" viewBox="0 0 231 66" fill="none" xmlns="http://www.w3.org/2000/svg">
<path d="M89.6294 47.5C88.9094 47.5 88.2827 47.26 87.7494 46.78C87.216 46.3 86.9494 45.7267 86.9494 45.06V21.94C86.9494 21.2733 87.2027 20.7 87.7094 20.22C88.2427 19.74 88.8827 19.5 89.6294 19.5H100.389C102.949 19.5 104.989 20.22 106.509 21.66C108.056 23.0733 108.829 24.98 108.829 27.38C108.829 28.5267 108.523 29.62 107.909 30.66C107.296 31.6733 106.483 32.46 105.469 33.02V33.14C106.856 33.62 107.949 34.4067 108.749 35.5C109.576 36.5933 109.989 37.8467 109.989 39.26C109.989 40.86 109.616 42.2867 108.869 43.54C108.123 44.7933 107.083 45.7667 105.749 46.46C104.416 47.1533 102.896 47.5 101.189 47.5H89.6294ZM100.309 31.26C101.189 31.26 101.936 30.9 102.549 30.18C103.189 29.46 103.509 28.5933 103.509 27.58C103.509 26.4867 103.216 25.62 102.629 24.98C102.069 24.34 101.296 24.02 100.309 24.02H92.1494V31.26H100.309ZM101.109 42.98C102.203 42.98 103.069 42.66 103.709 42.02C104.349 41.3533 104.669 40.4467 104.669 39.3C104.669 38.18 104.349 37.3133 103.709 36.7C103.096 36.06 102.229 35.74 101.109 35.74H92.1494V42.98H101.109ZM122.583 47.86C120.93 47.86 119.423 47.54 118.063 46.9C116.703 46.2333 115.623 45.34 114.823 44.22C114.023 43.0733 113.623 41.7933 113.623 40.38V35.06C113.623 33.5667 114.037 32.22 114.863 31.02C115.69 29.82 116.783 28.8733 118.143 28.18C119.53 27.4867 121.023 27.14 122.623 27.14C124.197 27.14 125.637 27.4733 126.943 28.14C128.277 28.78 129.33 29.6867 130.103 30.86C130.877 32.0067 131.263 33.3267 131.263 34.82V37.06C131.263 37.6467 131.037 38.14 130.583 38.54C130.157 38.94 129.61 39.14 128.943 39.14H118.463V40.02C118.463 41.1667 118.81 42.1 119.503 42.82C120.197 43.54 121.237 43.9 122.623 43.9C123.957 43.9 124.943 43.6067 125.583 43.02C126.25 42.4333 126.583 41.6733 126.583 40.74C127.063 40.6867 127.397 40.66 127.583 40.66C128.57 40.66 129.343 40.8867 129.903 41.34C130.463 41.7667 130.743 42.38 130.743 43.18C130.743 43.9533 130.383 44.7 129.663 45.42C128.943 46.14 127.957 46.7267 126.703 47.18C125.45 47.6333 124.077 47.86 122.583 47.86ZM126.743 35.58V34.82C126.743 33.7 126.357 32.7933 125.583 32.1C124.81 31.4067 123.81 31.06 122.583 31.06C121.357 31.06 120.357 31.4067 119.583 32.1C118.837 32.7667 118.463 33.6733 118.463 34.82V35.58H126.743ZM141.673 47.86C139.46 47.86 137.78 47.2333 136.633 45.98C135.513 44.7 134.953 43.0867 134.953 41.14V22.18C134.953 21.0867 135.353 20.3133 136.153 19.86C136.98 19.38 138.247 19.14 139.953 19.14V40.94C139.953 41.8467 140.153 42.5133 140.553 42.94C140.953 43.34 141.593 43.54 142.473 43.54C143.46 43.54 144.447 43.2867 145.433 42.78C145.7 43.02 145.9 43.3267 146.033 43.7C146.193 44.0467 146.273 44.4067 146.273 44.78C146.273 45.58 145.873 46.3 145.073 46.94C144.273 47.5533 143.14 47.86 141.673 47.86ZM155.267 47.86C153.054 47.86 151.374 47.2333 150.227 45.98C149.107 44.7 148.547 43.0867 148.547 41.14V22.18C148.547 21.0867 148.947 20.3133 149.747 19.86C150.574 19.38 151.841 19.14 153.547 19.14V40.94C153.547 41.8467 153.747 42.5133 154.147 42.94C154.547 43.34 155.187 43.54 156.067 43.54C157.054 43.54 158.041 43.2867 159.027 42.78C159.294 43.02 159.494 43.3267 159.627 43.7C159.787 44.0467 159.867 44.4067 159.867 44.78C159.867 45.58 159.467 46.3 158.667 46.94C157.867 47.5533 156.734 47.86 155.267 47.86ZM168.941 47.86C167.581 47.86 166.328 47.5933 165.181 47.06C164.061 46.5267 163.154 45.7667 162.461 44.78C161.794 43.7667 161.461 42.5667 161.461 41.18C161.461 39.7933 161.821 38.5933 162.541 37.58C163.261 36.54 164.234 35.7533 165.461 35.22C166.714 34.66 168.088 34.38 169.581 34.38C170.808 34.38 171.901 34.58 172.861 34.98C173.848 35.3533 174.754 35.9267 175.581 36.7L175.781 36.5C175.541 36.26 175.128 35.9 174.541 35.42V34.62C174.541 33.5267 174.154 32.66 173.381 32.02C172.608 31.38 171.528 31.06 170.141 31.06C167.661 31.06 165.834 31.9667 164.661 33.78C164.074 33.5933 163.581 33.3 163.181 32.9C162.781 32.4733 162.581 32.02 162.581 31.54C162.581 30.74 162.941 30.0067 163.661 29.34C164.381 28.6733 165.354 28.14 166.581 27.74C167.808 27.34 169.141 27.14 170.581 27.14C173.408 27.14 175.594 27.8067 177.141 29.14C178.688 30.4467 179.461 32.2333 179.461 34.5V44.5C179.461 45.6733 179.088 46.5267 178.341 47.06C177.594 47.5933 176.421 47.86 174.821 47.86V46.22C175.274 45.7667 175.581 45.4333 175.741 45.22L175.581 45.02C174.701 45.9533 173.754 46.66 172.741 47.14C171.754 47.62 170.488 47.86 168.941 47.86ZM170.221 44.22C171.608 44.22 172.688 43.9533 173.461 43.42C174.234 42.8867 174.621 42.1267 174.621 41.14C174.621 40.18 174.221 39.42 173.421 38.86C172.648 38.3 171.594 38.02 170.261 38.02C169.034 38.02 168.061 38.3 167.341 38.86C166.648 39.3933 166.301 40.1533 166.301 41.14C166.301 42.1533 166.648 42.9267 167.341 43.46C168.034 43.9667 168.994 44.22 170.221 44.22ZM183.942 21.94C183.942 21.2733 184.195 20.7 184.702 20.22C185.235 19.74 185.875 19.5 186.622 19.5H204.742C204.742 21.1 204.462 22.2733 203.902 23.02C203.368 23.74 202.488 24.1 201.262 24.1H189.302V30.86H199.942C199.942 32.46 199.662 33.6333 199.102 34.38C198.568 35.1 197.688 35.46 196.462 35.46H189.302V44.06C189.302 45.3933 188.875 46.3667 188.022 46.98C187.168 47.5667 185.808 47.86 183.942 47.86V21.94ZM209.215 25.26C208.255 25.26 207.455 24.98 206.815 24.42C206.201 23.8333 205.895 23.0867 205.895 22.18C205.895 21.3 206.201 20.58 206.815 20.02C207.455 19.4333 208.255 19.14 209.215 19.14C210.175 19.14 210.961 19.4333 211.575 20.02C212.215 20.58 212.535 21.3 212.535 22.18C212.535 23.0867 212.215 23.8333 211.575 24.42C210.961 24.98 210.175 25.26 209.215 25.26ZM206.695 30.18C206.695 29.0867 207.108 28.3133 207.935 27.86C208.761 27.38 210.015 27.14 211.695 27.14V44.82C211.695 45.8867 211.281 46.66 210.455 47.14C209.628 47.62 208.375 47.86 206.695 47.86V30.18ZM225.415 47.86C223.255 47.86 221.655 47.2333 220.615 45.98C219.575 44.7267 219.055 43.1133 219.055 41.14V31.22H214.935C214.935 29.9667 215.175 29.0333 215.655 28.42C216.135 27.8067 216.775 27.5 217.575 27.5H219.135V24.18C219.135 23.0867 219.535 22.3133 220.335 21.86C221.135 21.38 222.348 21.14 223.975 21.14V27.5H229.295C229.295 28.8333 229.041 29.7933 228.535 30.38C228.028 30.94 227.215 31.22 226.095 31.22H224.055V40.94C224.055 41.8733 224.228 42.54 224.575 42.94C224.948 43.34 225.575 43.54 226.455 43.54C227.388 43.54 228.321 43.2867 229.255 42.78C229.521 43.02 229.735 43.3267 229.895 43.7C230.055 44.0467 230.135 44.4067 230.135 44.78C230.135 45.58 229.721 46.3 228.895 46.94C228.068 47.5533 226.908 47.86 225.415 47.86Z" fill="white"/>
<ellipse cx="31.7209" cy="33" rx="31.7209" ry="33" fill="#FAFF05"/>
<path d="M16.6899 23.2939V42.7057" stroke="#100E18" stroke-width="3.88235"/>
<path d="M26.0195 23.2939V42.7057" stroke="#100E18" stroke-width="3.88235"/>
<path d="M52.1427 33H33.4834" stroke="#100E18" stroke-width="3.88235"/>
</svg>
